<?xml version="1.0" standalone="no"?>
<!DOCTYPE svg PUBLIC "-//W3C//DTD SVG 20010904//EN"
 "http://www.w3.org/TR/2001/REC-SVG-20010904/DTD/svg10.dtd">
<svg version="1.0" xmlns="http://www.w3.org/2000/svg"
 width="512.000000pt" height="512.000000pt" viewBox="0 0 512.000000 512.000000"
 preserveAspectRatio="xMidYMid meet">

    <g transform="translate(0.000000,512.000000) scale(0.100000,-0.100000)"
    fill="#000000" stroke="none">
        <path d="M1370 4525 l0 -85 635 0 635 0 0 85 0 85 -635 0 -635 0 0 -85z"/>
        <path d="M1370 4095 l0 -85 -685 0 -685 0 0 -85 0 -85 685 0 685 0 0 85 0 85
        635 0 635 0 0 85 0 85 -635 0 -635 0 0 -85z"/>
        <path d="M0 1195 l0 -85 685 0 685 0 0 85 0 85 -685 0 -685 0 0 -85z"/>
        <path d="M1370 935 l0 -85 635 0 635 0 0 85 0 85 -635 0 -635 0 0 -85z"/>
        <path d="M0 770 l0 -90 683 2 682 3 0 85 0 85 -682 3 -683 2 0 -90z"/>
        <path d="M1370 595 l0 -85 635 0 635 0 0 85 0 85 -635 0 -635 0 0 -85z"/>
    </g>
</svg>
